<svg xmlns="http://www.w3.org/2000/svg" xmlns:xlink="http://www.w3.org/1999/xlink" id="Layer_1" x="0px" y="0px" viewBox="0 0 654.3 347.9" style="enable-background:new 0 0 654.3 347.9;" xml:space="preserve"><style type="text/css">	.st0{fill:#FFFFFF;}</style><g>	<path class="st0" d="M372.6,0.1h96.5c-0.9,4.9-1.9,9.7-2.8,14.4c-13.5,69.7-27.1,139.5-40.6,209.2c-4.3,22-8.6,44.1-12.9,66.1  c-19.8,16.7-39.6,33.3-59.5,49.9c-2.9,2.4-6.8,5.8-9.8,8.2c-0.8,0-0.5,0-1.3,0c-21.3,0-42.5,0-63.8,0c-0.3,0-0.5,0-1.1-0.1  c0.6-3.4,1.3-6.8,1.9-10.1c2.8-15,6-32.2,8.8-47.2c2.3,0,0.5,0,2.3,0c8.7,0.1,17.3-0.1,26,0.1c5.7-29.9,11.5-59.8,17.3-89.7  c8.8-45.5,17.7-91,26.5-136.5c4-20.8,8-41.6,12.1-62.4C372.3,1.4,372.4,0.8,372.6,0.1z"></path>	<path class="st0" d="M195.2,0.1h96c-18.8,96.8-37.6,193.4-56.4,290.4h29.3c-3.6,19.3-7,38.3-10.6,57.4c-0.9,0-1.6,0-2.4,0  c-21.3,0-42.6,0-64,0c-1.5,0-0.5,0-2,0c-14.7-18.2-31.7-39.3-46.3-57.5c0.4-2.3,0.1-0.8,0.3-1.7c6.5-34,13.1-67.9,19.7-101.9  c7.8-40.1,15.6-80.2,23.4-120.3c4.2-21.7,8.4-43.3,12.7-65C194.9,1.1,195,0.7,195.2,0.1z"></path>	<path class="st0" d="M598.8,287.4c-1.1,0-1.8,0-2.6,0c-32.9,0-65.8,0-98.6,0c-1.9,0-2.5-0.7-3.1-2.4c-7.6-25.5-15.2-51-22.9-76.5  c-0.2-0.6-0.4-1.3-0.7-2.3c-12,13.8-23.8,27.4-35.7,41c1.1-5.6,2.2-11.1,3.2-16.7c7.8-40.3,15.6-80.6,23.5-120.8  c29.1-36.2,58.3-72.4,87.4-108.5c0.5-0.6,1.5-1.2,2.3-1.2C584.1,0,616.3,0,648.6,0c0.4,0,0.8,0.1,1.4,0.1  c-6.9,7.9-13.6,15.6-20.3,23.4c-28.1,32.4-56.3,64.8-84.5,97.2c-1,1.1-1.2,2-0.7,3.5c17.7,53.2,35.4,106.3,53.1,159.5  C598,284.7,598.3,285.8,598.8,287.4z"></path>	<path class="st0" d="M180.3,0.1c-1.4,7-2.6,13.4-3.8,19.8c-5.9,30.7-11.9,61.4-17.8,92.1c-20.5,18.4-40.9,36.9-61.4,55.4  c-0.5,0.4-1.1,0.8-1.6,1.1c0.1,0.2,0.2,0.4,0.4,0.6c17.1,0,34.1,0,51.5,0c-0.9,4.6-1.7,8.9-2.5,13.2c-2.6,13.4-5.2,26.9-7.8,40.3  c-0.4,2-1.1,2.6-3.2,2.6c-39.8-0.1-79.5-0.1-119.3,0c-2,0-2.6-0.6-3.1-2.5C7.9,206.7,4,190.7,0.1,174.6c-0.3-1.4-0.1-2.2,0.9-3.2  c37.3-35.6,74.5-71.2,111.7-106.8c21.9-20.9,43.7-41.8,65.6-62.7C178.9,1.4,179.4,1,180.3,0.1z"></path></g></svg>